<?xml version="1.0" standalone="no"?>
<!DOCTYPE svg PUBLIC "-//W3C//DTD SVG 20010904//EN"
 "http://www.w3.org/TR/2001/REC-SVG-20010904/DTD/svg10.dtd">
<svg version="1.0" xmlns="http://www.w3.org/2000/svg"
 width="512.000000pt" height="512.000000pt" viewBox="0 0 512.000000 512.000000"
 preserveAspectRatio="xMidYMid meet">
<metadata>
Created by potrace 1.13, written by Peter Selinger 2001-2015
</metadata>
<g transform="translate(0.000000,512.000000) scale(0.100000,-0.100000)"
fill="#000000" stroke="none">
<path d="M0 2560 l0 -2560 2560 0 2560 0 0 2560 0 2560 -2560 0 -2560 0 0
-2560z m1660 1981 c0 -27 -5 -31 -52 -46 -123 -39 -201 -82 -279 -153 -69 -65
-112 -135 -139 -227 -16 -56 1 -357 23 -392 10 -16 38 -179 57 -326 6 -50 6
-95 0 -125 -6 -26 -13 -63 -16 -82 -12 -69 -65 -176 -137 -275 -28 -38 -56
-73 -62 -77 -5 -3 -39 -29 -75 -57 -36 -29 -76 -60 -90 -71 -14 -11 -30 -20
-36 -20 -6 0 -32 -11 -58 -25 -26 -14 -53 -25 -61 -25 -8 0 -26 -11 -42 -24
l-28 -24 100 -48 c84 -40 220 -128 261 -169 7 -6 25 -22 41 -36 15 -13 39 -41
52 -61 12 -21 26 -38 31 -38 5 0 12 -10 16 -22 3 -13 12 -30 19 -38 6 -8 18
-31 25 -50 7 -19 18 -48 25 -65 21 -51 37 -133 38 -193 1 -78 -31 -294 -55
-367 -17 -51 -29 -145 -35 -258 -4 -91 -2 -111 11 -126 9 -10 16 -31 15 -47
-3 -31 20 -82 45 -103 11 -10 48 -12 137 -10 l121 4 34 37 c31 34 34 35 34 15
-1 -12 -7 -33 -15 -47 -13 -25 -14 -25 -142 -22 -168 5 -178 -3 -95 -79 62
-58 170 -117 267 -147 56 -18 60 -21 63 -52 l3 -33 -38 7 c-21 3 -54 9 -73 12
-19 3 -49 12 -67 20 -17 8 -36 14 -42 14 -6 0 -19 4 -29 9 -9 5 -39 19 -66 31
-124 57 -272 183 -341 291 -56 87 -105 186 -105 213 0 12 -4 26 -10 32 -15 15
-22 211 -11 319 5 55 17 129 26 165 16 66 25 109 45 215 13 69 9 241 -7 270
-5 11 -18 35 -28 54 -65 124 -178 204 -362 256 -60 17 -63 20 -63 49 0 31 2
32 68 49 93 24 208 83 257 132 67 67 79 84 128 180 16 32 21 203 7 270 -7 33
-16 80 -20 105 -4 25 -12 58 -19 73 -6 16 -11 43 -11 61 0 19 -7 53 -16 77
-23 60 -22 331 1 385 8 20 15 42 15 50 0 30 67 156 132 247 60 83 85 108 172
171 111 81 154 104 271 140 69 21 125 34 158 35 23 1 27 -3 27 -28z m1864 18
c80 -21 151 -42 166 -50 8 -4 33 -15 55 -25 22 -11 42 -21 45 -24 3 -3 21 -14
40 -24 19 -11 37 -22 40 -26 3 -3 25 -21 50 -40 108 -83 232 -261 267 -385 48
-169 53 -223 29 -371 -8 -49 -17 -102 -20 -119 -2 -16 -12 -59 -21 -95 -42
-166 -56 -350 -32 -421 22 -64 39 -99 49 -99 4 0 8 -6 8 -13 0 -34 182 -187
223 -187 7 0 17 -4 22 -9 10 -10 77 -29 133 -38 29 -5 32 -9 32 -39 0 -24 -5
-34 -16 -34 -43 0 -244 -76 -244 -92 0 -5 -6 -8 -14 -8 -19 0 -136 -117 -136
-136 0 -8 -3 -14 -7 -14 -8 0 -30 -45 -53 -107 -21 -56 -4 -250 35 -403 9 -36
20 -92 25 -125 5 -33 13 -87 19 -120 6 -33 11 -81 11 -107 0 -47 -24 -184 -40
-223 -35 -90 -50 -120 -97 -190 -114 -173 -281 -295 -488 -358 -152 -47 -167
-47 -163 -5 3 27 9 33 48 46 25 8 68 25 95 38 28 13 54 24 58 24 24 0 177 131
177 152 0 14 -46 20 -149 18 -135 -3 -131 -4 -131 23 0 35 9 38 42 14 25 -19
45 -23 135 -25 103 -4 105 -3 134 24 16 15 29 35 29 44 0 9 5 21 11 27 11 11
8 114 -6 166 -6 20 -4 27 7 27 12 0 14 13 11 68 -2 37 -7 83 -12 102 -23 89
-34 138 -41 180 -5 25 -13 56 -18 70 -9 23 -26 190 -24 235 1 34 18 108 32
140 50 116 95 197 133 236 66 68 139 133 172 154 17 11 32 22 35 26 3 3 58 32
123 63 64 32 117 61 117 66 0 5 -47 32 -104 60 -169 82 -302 195 -382 325 -44
71 -62 107 -95 193 -30 78 -15 359 29 517 25 91 37 197 37 320 0 123 -2 133
-28 184 -80 156 -173 229 -389 306 -42 15 -48 20 -48 46 0 33 15 36 84 18z
m-1082 -331 c10 -52 14 -59 42 -67 17 -6 51 -17 76 -26 31 -12 82 -17 169 -18
99 -2 125 -5 131 -17 13 -27 32 -85 37 -112 3 -16 9 -28 14 -28 5 0 9 -13 9
-29 0 -16 7 -34 15 -41 8 -7 15 -25 15 -41 0 -16 5 -29 10 -29 6 0 10 -13 10
-29 0 -16 6 -31 15 -35 15 -6 22 -66 7 -66 -4 0 -16 26 -26 58 -22 68 -28 85
-50 135 -9 21 -16 47 -16 57 0 11 -4 20 -9 20 -5 0 -12 15 -15 33 -7 38 -47
80 -89 96 -31 12 -373 15 -427 5 -42 -9 -96 -66 -104 -109 -4 -19 -11 -35 -15
-35 -5 0 -11 -12 -14 -27 -2 -16 -23 -80 -47 -143 -23 -63 -46 -126 -50 -140
-4 -14 -22 -63 -39 -110 -18 -47 -41 -112 -53 -145 -11 -33 -24 -64 -29 -70
-5 -5 -9 -17 -9 -27 0 -15 -17 -62 -40 -108 -4 -9 -11 -30 -14 -48 -4 -17 -12
-34 -17 -37 -5 -4 -9 -17 -9 -30 0 -13 -4 -27 -10 -30 -5 -3 -10 -14 -10 -23
0 -9 -6 -28 -13 -42 -7 -14 -22 -53 -33 -87 -10 -35 -22 -63 -26 -63 -5 0 -8
-8 -8 -17 0 -10 -11 -48 -25 -85 -14 -38 -36 -98 -49 -135 -60 -167 -109 -301
-122 -330 -8 -17 -14 -39 -14 -49 0 -11 -3 -14 -9 -8 -5 5 -3 37 7 79 9 39 15
90 14 115 -10 219 -10 245 6 272 18 30 54 43 81 29 14 -8 22 -6 33 7 19 22 75
138 83 175 4 15 11 27 16 27 5 0 9 13 9 29 0 17 4 32 9 35 5 3 12 22 15 41 4
19 11 35 16 35 6 0 10 11 10 25 0 14 4 33 9 43 26 47 41 87 41 109 0 13 7 26
15 29 8 4 15 19 15 34 0 16 4 31 9 34 5 3 11 20 14 38 9 56 28 123 38 133 5 5
9 21 9 36 0 15 5 31 10 34 6 3 10 16 10 28 0 12 7 31 15 41 8 11 15 28 15 38
0 10 4 18 9 18 5 0 13 10 16 23 8 26 32 85 45 109 6 10 10 29 10 43 0 14 7 28
15 31 9 4 15 19 15 35 0 16 5 29 10 29 6 0 10 13 10 28 0 16 7 37 15 48 8 10
15 30 15 43 0 34 28 61 61 61 22 0 29 6 34 29 3 16 13 32 21 35 16 6 33 44 39
90 6 53 5 57 27 -56z m706 -307 c20 -11 55 -35 77 -55 22 -20 50 -36 63 -36
13 0 22 -6 22 -15 0 -21 38 -95 49 -95 32 0 182 -241 214 -345 19 -59 29 -145
17 -145 -11 0 -69 89 -76 117 -6 24 -37 32 -49 13 -9 -15 -25 -12 -25 5 0 8
-4 23 -9 33 -4 9 -18 38 -29 64 -34 75 -61 100 -99 93 -29 -5 -32 -3 -43 32
-16 48 -40 74 -112 121 -38 24 -56 42 -53 51 3 8 -2 46 -12 84 -17 67 -17 69
1 83 24 17 20 18 64 -5z m-526 -323 c31 -65 82 -201 95 -253 2 -11 8 -29 13
-40 21 -54 41 -106 64 -172 14 -40 37 -103 50 -140 13 -38 32 -90 41 -118 9
-27 21 -59 25 -70 9 -22 47 -130 75 -210 9 -27 21 -59 26 -70 4 -11 16 -42 24
-70 9 -27 23 -64 31 -82 16 -36 18 -73 4 -73 -5 0 -12 12 -16 28 -6 30 -19 62
-40 105 -8 16 -14 34 -14 42 0 7 -7 26 -15 41 -8 16 -15 37 -15 46 0 9 -4 20
-10 23 -5 3 -10 19 -10 35 0 15 -7 30 -15 34 -8 3 -15 17 -15 31 0 25 -2 31
-33 93 -9 19 -17 39 -17 47 0 7 -7 26 -15 41 -8 16 -15 39 -15 52 0 12 -4 22
-10 22 -5 0 -10 12 -10 28 0 15 -7 36 -15 46 -8 11 -15 30 -15 42 0 13 -4 25
-9 28 -5 3 -19 25 -30 47 -12 23 -30 49 -41 58 -25 22 -37 63 -16 55 23 -9 34
45 12 58 -9 5 -16 22 -16 38 0 30 -24 43 -33 18 -2 -7 -7 24 -12 70 -4 45 -11
85 -16 88 -5 3 -9 16 -9 28 0 13 -7 29 -15 36 -16 13 -21 50 -7 50 5 0 16 -15
24 -32z m-121 -36 c-6 -2 -11 -14 -11 -26 0 -12 -6 -30 -14 -41 -7 -11 -16
-36 -19 -55 -7 -48 -48 -160 -58 -160 -5 0 -9 -10 -9 -23 0 -13 -7 -32 -15
-43 -8 -10 -15 -33 -15 -51 0 -17 -5 -35 -11 -38 -5 -4 -8 -19 -5 -33 3 -15 8
-45 11 -67 3 -22 15 -51 26 -64 19 -23 20 -23 33 -6 12 17 14 13 21 -31 4 -27
13 -64 21 -83 8 -18 14 -42 14 -52 0 -12 7 -19 20 -19 11 0 20 -5 20 -10 0 -6
17 -33 38 -61 20 -27 37 -53 37 -58 0 -12 32 -41 39 -34 3 4 6 2 6 -4 0 -6 -9
-13 -19 -16 -11 -2 -21 -15 -23 -28 -2 -15 -17 -30 -43 -43 -50 -26 -53 -28
-37 -33 21 -8 13 -21 -18 -28 -17 -4 -44 -18 -60 -32 -23 -19 -40 -24 -72 -23
-24 1 -48 1 -54 1 -20 -2 -62 -46 -82 -87 -11 -22 -28 -46 -36 -53 -18 -15
-21 -47 -6 -56 15 -9 204 -15 550 -16 169 -1 294 -5 280 -9 -14 -4 -218 -8
-455 -9 -387 0 -435 2 -480 18 -49 17 -50 18 -53 63 -2 33 8 75 38 159 22 63
51 143 64 179 13 36 37 103 54 150 39 109 129 362 149 420 9 25 20 49 25 54 4
6 8 17 8 25 0 19 69 211 91 253 5 10 9 23 9 28 0 6 10 32 22 58 22 46 23 47
26 17 2 -16 -1 -31 -7 -33z m1261 -1049 c1 -21 1 -47 1 -58 0 -11 6 -24 14
-28 11 -7 12 -12 2 -23 -7 -9 -13 -72 -15 -182 -3 -177 -4 -194 -23 -342 -7
-55 -9 -126 -5 -169 5 -54 4 -72 -5 -67 -6 4 -11 12 -11 19 0 6 -18 61 -41
122 -22 60 -52 142 -66 180 -13 39 -28 79 -32 90 -22 57 -34 93 -38 118 -3 15
-9 27 -14 27 -5 0 -9 8 -9 18 0 9 -7 30 -15 46 -17 32 -20 80 -5 71 6 -3 10
-17 10 -31 0 -14 7 -32 15 -40 8 -9 15 -26 15 -40 0 -13 5 -24 10 -24 6 0 10
-15 10 -34 0 -21 6 -36 15 -40 8 -3 15 -17 15 -31 0 -15 7 -33 15 -41 8 -9 15
-24 15 -33 0 -10 7 -24 15 -31 8 -7 15 -21 15 -31 0 -11 6 -19 14 -19 9 0 15
23 20 83 4 45 11 111 15 147 16 123 30 245 36 313 7 72 24 91 27 30z m-605
-669 c-4 -4 -137 -6 -296 -5 -207 2 -296 -1 -312 -9 -36 -20 -190 -23 -241 -5
-49 17 -196 20 -242 5 -17 -5 -50 -15 -74 -21 -25 -6 -45 -17 -48 -27 -3 -9
-10 -24 -15 -32 -35 -56 -47 -70 -51 -59 -6 17 -48 -11 -48 -33 0 -9 -7 -23
-15 -32 -8 -8 -15 -21 -15 -28 0 -8 -7 -23 -15 -34 -8 -10 -15 -29 -15 -41 0
-12 -6 -28 -13 -35 -14 -14 -29 -90 -27 -141 0 -16 -6 -30 -15 -33 -8 -4 -15
-17 -15 -30 0 -14 -6 -27 -14 -30 -8 -3 -17 -16 -20 -30 -8 -30 -30 -32 -23
-1 7 33 56 169 67 189 6 10 10 27 10 37 0 11 5 23 10 26 6 3 10 13 10 22 0 8
6 29 14 46 7 18 22 59 32 92 10 33 21 65 25 70 3 6 9 21 12 35 9 38 58 87 97
98 38 11 1248 16 1237 6z m-1320 -666 c53 -42 89 -98 79 -124 -6 -15 -82 -20
-101 -6 -18 13 -34 50 -41 92 -4 22 -11 43 -15 46 -5 3 -9 19 -9 36 0 30 1 31
18 15 9 -10 40 -36 69 -59z"/>
</g>
</svg>
